<svg xmlns="http://www.w3.org/2000/svg" xmlns:xlink="http://www.w3.org/1999/xlink" width="500" zoomAndPan="magnify" viewBox="0 0 375 374.999991" height="500" preserveAspectRatio="xMidYMid meet" version="1.0"><defs><g/><clipPath id="56f89c51f6"><path d="M 137.828125 92.003906 L 256.328125 92.003906 L 256.328125 161.003906 L 137.828125 161.003906 Z M 137.828125 92.003906 " clip-rule="nonzero"/></clipPath></defs><g fill="#ffffff" fill-opacity="1"><g transform="translate(164.372454, 176.16518)"><g><path d="M 7.171875 1.1875 C 5.023438 1.1875 3.367188 0.769531 2.203125 -0.0625 C 1.035156 -0.894531 0.453125 -2.015625 0.453125 -3.421875 C 0.453125 -4.648438 0.878906 -5.59375 1.734375 -6.25 C 2.597656 -6.90625 3.597656 -7.234375 4.734375 -7.234375 C 5.878906 -7.234375 6.890625 -6.976562 7.765625 -6.46875 C 8.640625 -5.96875 9.453125 -5.109375 10.203125 -3.890625 L 11.390625 -1.84375 C 11.609375 -1.53125 11.878906 -1.375 12.203125 -1.375 C 12.535156 -1.375 12.769531 -1.570312 12.90625 -1.96875 C 13.164062 -2.851562 13.347656 -4.140625 13.453125 -5.828125 C 13.566406 -7.515625 13.625 -9.566406 13.625 -11.984375 C 13.625 -14.742188 13.554688 -18.296875 13.421875 -22.640625 C 13.296875 -26.984375 13.164062 -32.335938 13.03125 -38.703125 C 13.03125 -40.585938 12.328125 -41.769531 10.921875 -42.25 L 9.40625 -42.78125 L 9.40625 -43.4375 L 26.65625 -43.4375 L 26.65625 -42.78125 L 25.203125 -42.25 C 24.410156 -41.945312 23.875 -41.539062 23.59375 -41.03125 C 23.3125 -40.53125 23.171875 -39.816406 23.171875 -38.890625 L 23.171875 -25.859375 C 23.171875 -21.566406 22.972656 -18.015625 22.578125 -15.203125 C 22.179688 -12.390625 21.546875 -9.953125 20.671875 -7.890625 C 19.566406 -4.953125 17.773438 -2.703125 15.296875 -1.140625 C 12.816406 0.410156 10.109375 1.1875 7.171875 1.1875 Z M 7.171875 1.1875 "/></g></g></g><g fill="#ffffff" fill-opacity="1"><g transform="translate(192.47357, 176.16518)"><g><path d="M 1.453125 0 L 1.453125 -0.65625 L 2.765625 -1.125 C 3.640625 -1.382812 4.21875 -1.773438 4.5 -2.296875 C 4.789062 -2.828125 4.9375 -3.53125 4.9375 -4.40625 L 4.9375 -38.890625 C 4.9375 -39.773438 4.78125 -40.476562 4.46875 -41 C 4.164062 -41.53125 3.578125 -41.945312 2.703125 -42.25 L 1.453125 -42.78125 L 1.453125 -43.4375 L 17.4375 -43.4375 C 23.976562 -43.4375 28.707031 -42.238281 31.625 -39.84375 C 34.539062 -37.457031 36 -34.3125 36 -30.40625 C 36 -27.90625 35.394531 -25.613281 34.1875 -23.53125 C 32.976562 -21.445312 30.992188 -19.789062 28.234375 -18.5625 C 25.472656 -17.332031 21.742188 -16.71875 17.046875 -16.71875 L 14.8125 -16.71875 L 14.8125 -4.609375 C 14.8125 -2.898438 15.664062 -1.78125 17.375 -1.25 L 19.34375 -0.65625 L 19.34375 0 Z M 14.8125 -18.03125 L 17.3125 -18.03125 C 19.457031 -18.03125 21.207031 -18.378906 22.5625 -19.078125 C 23.925781 -19.785156 24.9375 -21.015625 25.59375 -22.765625 C 26.257812 -24.523438 26.59375 -26.960938 26.59375 -30.078125 C 26.59375 -33.234375 26.226562 -35.6875 25.5 -37.4375 C 24.78125 -39.195312 23.71875 -40.414062 22.3125 -41.09375 C 20.90625 -41.78125 19.148438 -42.125 17.046875 -42.125 L 14.8125 -42.125 Z M 14.8125 -18.03125 "/></g></g></g><g clip-path="url(#56f89c51f6)"><path fill="#ffffff" d="M 244.003906 151.828125 C 244.023438 151.257812 244.453125 150.585938 244.960938 150.332031 L 255.273438 145.167969 C 255.78125 144.914062 256.125 144.246094 256.035156 143.683594 L 253.65625 132.726562 C 253.503906 132.179688 252.914062 131.703125 252.347656 131.664062 L 240.621094 130.90625 C 240.054688 130.871094 239.378906 130.425781 239.125 129.917969 L 237.527344 126.988281 C 237.242188 126.496094 237.246094 125.695312 237.535156 125.207031 L 243.457031 115.222656 C 243.746094 114.730469 243.679688 113.984375 243.304688 113.554688 L 235.324219 105.417969 C 234.90625 105.035156 234.15625 104.949219 233.660156 105.226562 L 223.453125 110.886719 C 222.957031 111.164062 222.152344 111.148438 221.667969 110.855469 L 218.910156 109.289062 C 218.410156 109.023438 217.980469 108.339844 217.960938 107.773438 L 217.539062 96.074219 C 217.519531 95.503906 217.058594 94.90625 216.515625 94.742188 L 205.464844 92.097656 C 204.902344 91.996094 204.226562 92.324219 203.957031 92.824219 L 198.46875 103.039062 C 198.199219 103.539062 197.746094 103.945312 197.460938 103.9375 L 197.199219 103.9375 C 195.605469 103.9375 193.507812 104.097656 193.507812 104.097656 C 192.941406 104.140625 192.214844 103.792969 191.890625 103.328125 L 185.179688 93.667969 C 184.859375 93.199219 184.144531 92.945312 183.597656 93.09375 L 173.039062 96.65625 C 172.511719 96.867188 172.117188 97.503906 172.164062 98.070312 L 173.0625 109.550781 C 173.109375 110.117188 172.753906 110.832031 172.277344 111.140625 L 168.921875 113.464844 C 168.464844 113.804688 167.660156 113.902344 167.136719 113.6875 L 156.269531 109.1875 C 155.742188 108.96875 155.003906 109.136719 154.621094 109.558594 L 147.847656 117.960938 C 147.515625 118.417969 147.527344 119.167969 147.867188 119.617188 L 154.800781 128.746094 C 155.144531 129.199219 155.230469 129.992188 154.992188 130.507812 L 153.105469 135.019531 C 152.90625 135.550781 152.285156 136.070312 151.726562 136.167969 L 140.195312 138.25 C 139.636719 138.351562 139.105469 138.894531 139.015625 139.457031 C 139.015625 139.457031 137.890625 146.546875 137.890625 150.78125 L 137.890625 150.800781 C 137.890625 150.828125 138.328125 151.007812 138.859375 151.203125 L 149.621094 155.132812 C 150.15625 155.328125 150.65625 155.945312 150.738281 156.507812 L 151.746094 162.007812 C 151.871094 162.5625 151.632812 163.332031 151.21875 163.71875 L 142.695312 171.65625 C 142.28125 172.042969 142.132812 172.785156 142.367188 173.300781 L 147.015625 182.3125 C 147.300781 182.804688 147.988281 183.101562 148.542969 182.980469 L 159.769531 180.457031 C 160.324219 180.332031 161.082031 180.578125 161.457031 181.003906 L 165.597656 185.308594 C 166.007812 185.699219 166.230469 186.46875 166.089844 187.019531 L 163.230469 198.222656 C 163.089844 198.773438 163.367188 199.472656 163.847656 199.773438 L 172.613281 204.714844 C 173.121094 204.96875 173.863281 204.84375 174.261719 204.4375 L 182.390625 196.199219 C 182.789062 195.792969 183.5625 195.585938 184.113281 195.730469 L 189.890625 197.015625 C 190.449219 197.117188 191.054688 197.640625 191.234375 198.179688 L 194.863281 209.070312 C 195.039062 209.609375 195.652344 210.0625 196.21875 210.078125 C 196.21875 210.078125 196.523438 210.085938 197.195312 210.085938 C 200.683594 210.085938 206.394531 209.339844 206.394531 209.339844 C 206.960938 209.265625 207.515625 208.75 207.632812 208.195312 L 210.03125 196.785156 C 210.148438 196.230469 210.6875 195.628906 211.226562 195.449219 L 216.308594 193.519531 C 216.832031 193.296875 217.621094 193.40625 218.0625 193.761719 L 226.984375 200.949219 C 227.425781 201.304688 228.171875 201.335938 228.640625 201.015625 L 237.015625 194.667969 C 237.449219 194.300781 237.640625 193.566406 237.4375 193.035156 L 233.261719 182.066406 C 233.058594 181.539062 233.179688 180.738281 233.535156 180.292969 L 236.296875 176.523438 C 236.617188 176.054688 237.339844 175.71875 237.90625 175.78125 L 249.320312 177.007812 C 249.882812 177.066406 250.527344 176.691406 250.753906 176.167969 L 254.492188 165.945312 C 254.65625 165.402344 254.421875 164.683594 253.964844 164.34375 L 244.492188 157.355469 C 244.035156 157.015625 243.703125 156.277344 243.757812 155.714844 Z M 197.046875 185.5625 C 177.957031 185.5625 162.480469 170.089844 162.480469 151 C 162.480469 131.910156 177.957031 116.4375 197.046875 116.4375 C 216.132812 116.4375 231.609375 131.910156 231.609375 151 C 231.609375 170.089844 216.132812 185.5625 197.046875 185.5625 Z M 197.046875 185.5625 " fill-opacity="1" fill-rule="nonzero"/></g></svg>